<?xml version="1.0" standalone="no"?>
<!DOCTYPE svg PUBLIC "-//W3C//DTD SVG 20010904//EN"
 "http://www.w3.org/TR/2001/REC-SVG-20010904/DTD/svg10.dtd">
<svg version="1.0" xmlns="http://www.w3.org/2000/svg"
 width="394.000000pt" height="331.000000pt" viewBox="0 0 394.000000 331.000000"
 preserveAspectRatio="xMidYMid meet">

<g transform="translate(0.000000,331.000000) scale(0.100000,-0.100000)"
fill="#000000" stroke="none">
<path d="M0 1655 l0 -1655 1970 0 1970 0 0 1655 0 1655 -1970 0 -1970 0 0
-1655z m3640 1505 c5 -8 4 -22 -1 -31 -8 -16 -32 -18 -243 -21 -129 -2 -238
-7 -243 -11 -11 -11 -17 -1198 -6 -1262 l8 -50 234 -3 c258 -3 291 -10 245
-56 -13 -14 -50 -16 -254 -16 -257 0 -285 5 -298 49 -4 14 -7 328 -7 697 0
641 1 673 19 692 22 25 46 27 329 26 166 0 210 -3 217 -14z m-1930 -16 c85
-39 135 -86 172 -162 l33 -67 0 -589 c0 -531 -2 -590 -16 -599 -9 -6 -24 -7
-33 -4 -15 6 -16 57 -16 570 0 636 1 629 -72 712 -144 164 -401 110 -463 -97
-13 -44 -15 -138 -15 -604 0 -304 -3 -559 -6 -568 -10 -25 -53 -20 -59 7 -3
12 -5 281 -3 597 l3 575 28 57 c36 73 93 129 169 168 53 26 72 30 142 30 66 0
91 -5 136 -26z m532 9 c8 -10 54 -92 101 -183 133 -256 130 -251 152 -248 21
3 27 15 156 270 44 86 86 162 94 168 20 17 45 5 45 -21 0 -25 -224 -465 -253
-496 -26 -29 -71 -30 -95 -3 -28 33 -251 473 -252 496 0 37 26 46 52 17z
m-1345 -9 c9 -23 -7 -33 -72 -45 -164 -29 -309 -146 -390 -312 -59 -123 -78
-205 -78 -347 0 -140 16 -211 79 -339 37 -74 62 -110 118 -165 79 -79 161
-129 204 -124 24 3 27 7 27 43 0 37 -3 41 -47 62 -66 31 -169 132 -206 200
-55 104 -76 195 -76 318 0 71 6 133 17 175 56 212 217 380 369 384 49 1 53 -1
53 -22 0 -20 -10 -27 -66 -45 -119 -40 -193 -108 -250 -230 -33 -71 -59 -179
-59 -248 0 -137 58 -296 144 -388 32 -35 98 -81 116 -81 6 0 11 65 12 168 l3
167 28 3 27 3 0 -163 c0 -90 3 -173 6 -185 8 -29 46 -31 74 -3 18 18 20 33 20
173 0 118 3 158 14 173 12 15 18 17 33 8 16 -10 18 -30 21 -200 1 -104 0 -199
-3 -210 -7 -29 -49 -45 -110 -42 l-50 3 -3 -55 c-3 -58 -22 -90 -53 -90 -39 0
-150 49 -213 94 -257 183 -361 561 -247 894 40 116 84 185 176 277 105 105
220 163 328 164 34 1 49 -3 54 -15z m775 -169 c21 -14 47 -43 58 -65 19 -37
20 -58 20 -385 0 -308 -2 -345 -16 -345 -26 0 -204 104 -210 122 -14 46 22 49
91 8 28 -16 56 -30 63 -30 20 0 17 561 -3 600 -35 67 -120 82 -177 31 l-33
-29 -3 -570 c-2 -486 -5 -572 -17 -582 -8 -7 -22 -10 -30 -6 -13 5 -15 75 -15
573 0 530 2 571 19 608 22 49 48 73 98 91 49 18 108 10 155 -21z m1966 11 c2
-10 -2 -22 -10 -27 -7 -5 -77 -9 -155 -9 -115 0 -144 -3 -157 -16 -13 -12 -16
-41 -16 -147 0 -73 -4 -138 -9 -145 -5 -8 -17 -12 -27 -10 -18 3 -19 16 -22
170 -3 223 -18 209 217 206 163 -3 176 -4 179 -22z m-1295 -367 c113 -219 131
-250 150 -247 18 2 47 53 147 248 113 220 128 245 150 245 l25 0 3 -561 c2
-488 0 -563 -13 -574 -8 -7 -22 -10 -30 -6 -13 5 -15 67 -15 491 0 293 -4 484
-9 481 -11 -7 -55 -86 -146 -261 -80 -155 -80 -155 -115 -155 -36 0 -45 12
-135 185 -43 82 -89 167 -101 190 l-23 40 -3 -477 c-3 -491 -5 -509 -42 -495
-14 6 -16 68 -16 576 0 579 0 587 35 574 6 -2 68 -116 138 -254z m1267 -79
c11 -6 17 -17 14 -25 -5 -13 -38 -15 -199 -15 -106 0 -200 3 -209 6 -24 9 -19
32 7 37 48 9 369 7 387 -3z m28 -174 c2 -10 -2 -22 -10 -27 -7 -5 -79 -9 -160
-9 -135 0 -148 -2 -158 -19 -5 -11 -10 -76 -10 -144 0 -130 -9 -157 -45 -143
-12 4 -15 31 -15 161 0 153 1 156 25 181 24 24 25 24 197 22 160 -3 173 -4
176 -22z m-988 -343 c0 -287 -5 -321 -37 -278 -10 15 -13 75 -13 272 0 213 3
259 16 285 12 24 18 28 25 17 5 -8 9 -141 9 -296z m-280 258 c11 -21 15 -497
4 -525 -10 -27 -31 -18 -38 15 -8 40 -8 477 0 507 8 27 20 28 34 3z m-720
-189 l85 -47 3 -151 c2 -127 0 -153 -12 -157 -9 -4 -17 -3 -20 1 -3 5 -7 66
-11 137 -3 71 -10 134 -16 140 -5 5 -40 28 -77 51 -66 40 -92 74 -55 74 10 0
56 -21 103 -48z m1973 -171 c26 -26 -12 -31 -214 -29 -181 3 -204 5 -207 20
-4 22 13 23 231 22 115 -1 183 -6 190 -13z m-2862 -333 c71 -33 134 -96 167
-166 l27 -57 0 -480 0 -480 -26 -55 c-32 -68 -87 -122 -159 -158 -48 -24 -67
-27 -150 -27 -76 0 -104 5 -142 22 -65 30 -132 101 -160 171 -23 57 -23 59
-23 527 l0 470 28 60 c30 64 93 137 142 162 93 50 203 54 296 11z m412 10 c8
-13 76 -333 152 -712 103 -511 136 -692 128 -705 -16 -25 -42 -25 -52 1 -5 13
-71 334 -147 714 -117 586 -136 694 -125 708 18 22 28 20 44 -6z m1504 6 c3
-9 2 -24 -4 -33 -9 -14 -41 -16 -238 -19 -148 -1 -233 -6 -242 -13 -11 -9 -13
-131 -13 -648 0 -353 4 -642 9 -650 7 -11 57 -15 243 -19 134 -2 238 -8 245
-14 9 -7 10 -16 2 -29 -9 -18 -25 -19 -263 -19 -235 0 -256 1 -277 19 l-24 19
-3 659 c-2 362 0 673 3 691 3 18 15 42 26 53 18 18 35 19 274 19 227 0 256 -2
262 -16z m492 -15 c81 -28 197 -105 257 -172 55 -62 120 -191 134 -266 24
-126 4 -281 -50 -396 -33 -68 -104 -156 -162 -199 -22 -16 -37 -34 -35 -40 3
-6 32 -78 66 -160 34 -82 61 -156 59 -165 -2 -9 -13 -16 -27 -16 -20 0 -29 16
-75 125 -29 69 -60 140 -70 157 l-16 33 -48 -19 -47 -19 -3 -131 c-2 -109 -5
-133 -18 -138 -9 -3 -20 0 -25 8 -5 8 -9 161 -9 340 l0 327 -46 111 c-26 61
-50 109 -53 105 -3 -3 -8 -207 -11 -452 -5 -427 -6 -447 -24 -450 -10 -2 -22
2 -27 10 -5 7 -9 252 -9 544 0 446 2 533 14 550 11 14 19 17 31 9 17 -10 29
-36 160 -347 44 -104 85 -188 91 -188 12 0 64 62 64 76 0 4 -14 36 -30 71 -17
35 -59 133 -95 218 -36 85 -94 225 -130 310 -55 131 -64 159 -54 177 10 18 17
20 68 15 31 -4 85 -16 120 -28z m-1835 13 c2 -4 61 -289 130 -632 140 -692
137 -682 154 -688 14 -4 -2 -76 146 676 69 347 128 637 131 642 9 15 45 12 51
-3 3 -8 -13 -103 -35 -213 -22 -109 -86 -424 -141 -699 -104 -518 -106 -525
-155 -525 -48 0 -54 16 -100 255 -25 127 -87 441 -139 700 -51 259 -91 476
-89 483 6 13 39 17 47 4z m434 -28 c2 -25 -98 -551 -144 -757 -17 -74 -37 -85
-42 -25 -3 34 140 787 153 809 12 18 30 3 33 -27z m865 -121 c44 -7 59 -30 32
-49 -14 -10 -57 -14 -160 -14 -96 0 -145 -4 -153 -12 -8 -8 -12 -56 -12 -150
0 -121 -2 -138 -17 -146 -40 -20 -43 -7 -43 167 0 217 -9 208 195 210 66 0
137 -2 158 -6z m27 -482 c0 -26 -35 -31 -224 -31 -120 0 -167 3 -181 13 -41
31 -8 37 201 37 193 0 204 -1 204 -19z m15 -166 c0 -19 -8 -20 -158 -25 -125
-4 -160 -8 -167 -20 -5 -8 -10 -74 -10 -147 0 -116 -2 -133 -17 -141 -39 -20
-43 -7 -43 157 0 217 -16 202 213 199 174 -3 182 -4 182 -23z m839 -328 c13
-34 45 -111 70 -171 34 -85 42 -114 35 -129 -6 -11 -19 -17 -32 -15 -17 2 -34
34 -89 163 -84 198 -82 190 -64 208 28 27 53 9 80 -56z m-855 -110 c25 -31 -9
-37 -205 -37 -155 0 -194 3 -204 15 -25 31 0 35 199 35 153 0 201 -3 210 -13z"/>
<path d="M550 1541 c-83 -26 -151 -93 -174 -172 -13 -44 -16 -123 -16 -484 0
-481 2 -499 65 -572 66 -78 182 -108 291 -75 58 17 127 81 153 142 21 50 22
57 19 518 l-3 467 -27 47 c-64 108 -196 163 -308 129z m143 -105 c18 -7 48
-30 67 -50 l35 -37 3 -446 c2 -428 2 -447 -17 -487 -12 -25 -37 -52 -63 -69
-38 -25 -50 -28 -105 -25 -67 4 -100 21 -137 72 -20 27 -21 41 -24 476 -3 434
-2 451 17 489 19 37 56 71 91 84 29 11 101 7 133 -7z"/>
<path d="M539 1361 l-29 -29 0 -445 c0 -434 0 -445 21 -471 39 -50 128 -51
178 -1 l26 25 3 427 c2 309 -1 435 -9 456 -19 45 -55 67 -111 67 -41 0 -54 -5
-79 -29z"/>
<path d="M3076 1532 c-2 -4 4 -27 14 -52 14 -37 28 -51 76 -79 262 -153 310
-468 102 -673 -35 -35 -76 -73 -91 -85 -24 -19 -28 -29 -25 -65 4 -57 20 -58
99 -6 167 112 249 260 249 453 0 179 -90 342 -241 438 -68 42 -174 83 -183 69z"/>
<path d="M3160 1317 c0 -8 20 -58 44 -113 24 -54 61 -141 81 -192 23 -55 42
-89 47 -84 16 16 21 118 8 173 -7 30 -24 76 -38 102 -42 78 -142 158 -142 114z"/>
</g>
</svg>
